<?xml version="1.0" standalone="no"?>
<!DOCTYPE svg PUBLIC "-//W3C//DTD SVG 20010904//EN"
 "http://www.w3.org/TR/2001/REC-SVG-20010904/DTD/svg10.dtd">
<svg version="1.0" xmlns="http://www.w3.org/2000/svg"
 width="1432.000000pt" height="1432.000000pt" viewBox="0 0 1432.000000 1432.000000"
 preserveAspectRatio="xMidYMid meet">
<metadata>
Created by potrace 1.11, written by Peter Selinger 2001-2013
</metadata>
<g transform="translate(0.000000,1432.000000) scale(0.100000,-0.100000)"
fill="#000000" stroke="none">
<path d="M10 7160 l0 -4440 7150 0 7150 0 0 4440 0 4440 -7150 0 -7150 0 0
-4440z m3962 1776 c231 -48 457 -141 643 -263 112 -74 155 -110 278 -231 417
-410 603 -981 512 -1577 -14 -97 -61 -282 -74 -297 -4 -4 -73 59 -153 140
l-147 147 9 40 c34 141 31 370 -5 551 -146 721 -803 1212 -1545 1154 -185 -14
-330 -55 -507 -141 -240 -117 -427 -280 -570 -494 -335 -505 -326 -1147 24
-1648 73 -106 234 -265 348 -346 160 -113 378 -203 585 -243 79 -15 424 -15
495 0 l50 11 148 -147 148 -147 -33 -14 c-65 -26 -296 -71 -430 -83 -418 -36
-871 96 -1217 356 -600 450 -866 1232 -661 1941 89 310 234 561 453 784 254
259 574 433 929 505 175 35 163 34 388 31 176 -2 223 -6 332 -29z m3263 -656
c103 -13 308 -48 360 -61 22 -6 63 -17 92 -25 l51 -15 -5 -157 -6 -156 -444
-511 -443 -510 132 -6 c273 -13 395 -73 466 -228 34 -74 43 -233 18 -329 -40
-158 -161 -270 -344 -317 -147 -39 -409 -42 -662 -9 -119 15 -299 52 -313 64
-4 4 150 189 343 411 l352 404 -69 2 c-170 6 -356 25 -429 43 -246 62 -409
214 -471 441 -14 50 -18 101 -18 234 1 158 3 176 28 250 96 283 339 438 762
485 97 11 490 4 600 -10z m1209 -47 c13 -21 180 -328 371 -683 191 -355 349
-646 350 -648 1 -1 172 294 380 658 208 363 383 667 389 675 9 13 40 15 203
13 l193 -3 -505 -842 -505 -843 0 -357 c0 -197 -3 -402 -7 -455 l-6 -98 -117
0 c-65 0 -138 3 -164 6 l-47 7 1 453 1 452 -24 49 c-14 26 -221 407 -461 846
-240 439 -436 800 -436 803 0 2 81 4 180 4 l180 0 24 -37z m3482 2 c154 -16
256 -34 417 -71 l107 -26 0 -156 -1 -157 -444 -510 -444 -510 122 -7 c220 -14
328 -50 410 -136 106 -114 128 -338 49 -507 -54 -114 -168 -197 -332 -240 -86
-23 -390 -32 -541 -16 -184 19 -419 65 -419 81 0 4 158 190 351 412 l352 403
-189 6 c-322 11 -493 68 -634 209 -121 121 -172 267 -172 495 0 237 47 363
186 500 176 174 408 242 837 244 120 1 265 -5 345 -14z m-8168 -974 c56 -29
1378 -1357 1397 -1403 28 -68 17 -148 -28 -197 -27 -29 -93 -61 -127 -61 -85
0 -70 -14 -783 698 -378 377 -687 693 -698 714 -34 66 -21 177 27 220 58 51
146 63 212 29z m2264 -1212 l100 -31 -20 -22 c-10 -11 -51 -59 -92 -106 -40
-47 -79 -92 -86 -100 -12 -12 -14 9 -14 138 0 84 3 152 6 152 3 0 51 -14 106
-31z m4723 -45 c47 -14 85 -29 85 -33 0 -5 -160 -194 -191 -225 -5 -6 -9 48
-9 143 0 131 2 152 15 147 8 -3 53 -17 100 -32z"/>
</g>
</svg>
