<svg version="1" xmlns="http://www.w3.org/2000/svg" width="400" height="400" viewBox="0 0 300.000000 300.000000"><path d="M138.5 46.1c-52.4 5.7-91.8 50.2-91.8 103.4 0 50.8 35.9 93.9 85.3 102.6 14.4 2.5 36.1 1 48.3-3.3l3.7-1.3-8.7-8.7-8.8-8.6-5 .8c-29.8 5.1-63.2-9.9-80.1-36-25.1-38.8-13.8-91.3 24.8-115.4C161 45.5 231.1 84.9 231 149.8c0 5.3-.4 11.3-.9 13.3-.8 3.7-.8 3.8 8 12.5l8.8 8.7 1.5-5.4c4.5-16.1 5.3-35.7 2.2-50.4-4-18.4-13.8-37.2-26.5-50.8-21.6-23-54.2-35.1-85.6-31.6z"/><path d="M147.2 143.6c-3.5 2.4-5.5 7.1-4.7 11.3.6 3.1 6.3 9.3 40.6 43.6l39.9 40h4.6c3.9 0 5-.5 7.5-3.3 2.2-2.5 2.9-4.2 2.9-7.4 0-4.6 6 1.9-55.5-60.6-12.1-12.3-23.2-23-24.7-23.8-3.5-1.8-7.8-1.8-10.6.2z"/></svg>