<svg id="Layer_1" data-name="Layer 1" xmlns="http://www.w3.org/2000/svg" viewBox="0 0 358.08 222"><defs><style>.cls-1{fill:#e27907;}.cls-2{fill:#1a3c5b;}</style></defs><title>Artboard 9 copy 2</title><path class="cls-1" d="M105.74,154l-7.7-7.7a36.08,36.08,0,1,1,27.63-27.64l7.7,7.7A45.6,45.6,0,1,0,105.74,154Z"/><path class="cls-1" d="M88.51,109.09a4.77,4.77,0,0,0,0,6.74l33,33a4.77,4.77,0,0,0,6.74-6.75l-33-33A4.78,4.78,0,0,0,88.51,109.09Z"/><path class="cls-2" d="M147.8,145.62l.07-7.74a65.85,65.85,0,0,0,22.1,3.85q16.8.15,16.92-12.14Q187,119.12,174.6,119l-8.38-.08q-20.44-.19-20.28-18,.18-18.66,26.36-18.42a78.2,78.2,0,0,1,21.15,2.93l-.08,7.74a60.18,60.18,0,0,0-21.13-3.84q-17.76-.16-17.87,11.67-.1,10.47,11.92,10.59l8.38.07q20.81.2,20.64,18-.18,19.11-25.4,18.89A86.19,86.19,0,0,1,147.8,145.62Z"/><path class="cls-2" d="M201.44,83.27l9.33.09,18.44,34.19,19.36-33.84,9.79.09L233.1,125.92l-.21,22.77-8.43-.08.22-22.77Z"/><path class="cls-2" d="M265.74,146.72l.07-7.75a65.31,65.31,0,0,0,22.1,3.85q16.8.17,16.91-12.13.1-10.48-12.28-10.59l-8.38-.08q-20.45-.19-20.28-18Q264,83.4,290.23,83.64a79,79,0,0,1,21.15,2.93l-.07,7.75a60.42,60.42,0,0,0-21.14-3.85q-17.76-.16-17.87,11.68-.09,10.47,11.93,10.58l8.37.08q20.82.19,20.65,17.95-.18,19.13-25.41,18.89A85.68,85.68,0,0,1,265.74,146.72Z"/></svg>